# xmcd CD database file
#
# Track frame offsets:
#	150
#	19590
#	49005
#	71545
#	99930
#	122492
#	145197
#	171572
#	192800
#	217402
#	239927
#	271162
#	297212
#	322505
#
# Disc length: 4614 seconds
#
# Revision: 0
# Processed by: cddbd v1.5.2PL0 Copyright (c) Steve Scherf et al.
# Submitted via: CDex 1.70beta2
#
DISCID=ce12040e
DTITLE=トーマス・ハーデン・トリオ - JAZZで聴く…J-POP4
DYEAR=2002
DGENRE=Jazz
TTITLE0=愛のしるし
TTITLE1=セロリ
TTITLE2=うれしい！たのしい！大好き！
TTITLE3=太陽は罪な奴
TTITLE4=ダンスはうまく踊れない
TTITLE5=ありがとう
TTITLE6=二人のハーモニー
TTITLE7=アジアの純真
TTITLE8=これが私の生きる道
TTITLE9=幸せな結末
TTITLE10=風になりたい
TTITLE11=島唄
TTITLE12=うれしはずかし朝帰り
TTITLE13=晴れたらいいね
EXTD=YEAR: 2002
EXTT0=
EXTT1=
EXTT2=
EXTT3=
EXTT4=
EXTT5=
EXTT6=
EXTT7=
EXTT8=
EXTT9=
EXTT10=
EXTT11=
EXTT12=
EXTT13=
PLAYORDER=
